<svg xmlns="http://www.w3.org/2000/svg" version="1.1" xmlns:xlink="http://www.w3.org/1999/xlink" viewBox="0 0 200 200"><rect width="200" height="200" fill="url('#gradient')"></rect><defs><linearGradient id="gradient" gradientTransform="rotate(45 0.5 0.5)"><stop offset="0%" stop-color="#340c79"></stop><stop offset="100%" stop-color="#340c79"></stop></linearGradient></defs><g><g fill="#ffffff" transform="matrix(7.865987968533086,0,0,7.865987968533086,13.002601511419954,141.5356177654381)" stroke="#739bab" stroke-width="0"><path d="M0.52-4.82L0.51-5.38Q0.51-6.96 1.12-8.20Q1.74-9.43 2.89-10.10Q4.04-10.76 5.60-10.76L5.60-10.76Q7.97-10.76 9.34-9.29Q10.70-7.82 10.70-5.29L10.70-5.29L10.70-5.18Q10.70-2.71 9.33-1.25Q7.96 0.20 5.62 0.20L5.62 0.20Q3.36 0.20 1.99-1.16Q0.63-2.51 0.52-4.82L0.52-4.82ZM3.81-5.77L3.80-5.18Q3.80-3.71 4.26-3.03Q4.72-2.34 5.62-2.34L5.62-2.34Q7.37-2.34 7.41-5.05L7.41-5.05L7.41-5.38Q7.41-8.22 5.60-8.22L5.60-8.22Q3.95-8.22 3.81-5.77L3.81-5.77ZM12.09-10.57L15.18-10.57L15.28-9.33Q16.38-10.76 18.30-10.76L18.30-10.76Q19.95-10.76 20.77-9.78Q21.58-8.79 21.61-6.81L21.61-6.81L21.61 0L18.31 0L18.31-6.67Q18.31-7.47 17.99-7.85Q17.67-8.22 16.82-8.22L16.82-8.22Q15.85-8.22 15.38-7.46L15.38-7.46L15.38 0L12.09 0L12.09-10.57Z"></path></g></g></svg>